<?xml version="1.0" standalone="no"?>
<!DOCTYPE svg PUBLIC "-//W3C//DTD SVG 20010904//EN"
 "http://www.w3.org/TR/2001/REC-SVG-20010904/DTD/svg10.dtd">
<svg version="1.0" xmlns="http://www.w3.org/2000/svg"
 width="260.000000pt" height="260.000000pt" viewBox="0 0 260.000000 260.000000"
 preserveAspectRatio="xMidYMid meet">
<metadata>
Created by potrace 1.14, written by Peter Selinger 2001-2017
</metadata>
<g transform="translate(0.000000,260.000000) scale(0.100000,-0.100000)"
fill="#000000" stroke="none">
<path d="M0 1300 l0 -1300 1300 0 1300 0 0 1300 0 1300 -1300 0 -1300 0 0
-1300z m1005 660 c4 -6 9 -8 13 -6 4 2 13 -2 20 -10 15 -17 8 -18 -19 -4 -13
7 -19 7 -19 0 0 -5 4 -10 8 -10 15 0 9 -29 -6 -35 -10 -3 -12 0 -8 10 5 15 -9
22 -17 8 -2 -5 -2 -2 0 5 1 8 3 22 3 33 0 20 15 26 25 9z m2 -126 c-15 -8 -27
-19 -27 -25 0 -6 4 -8 9 -4 5 3 13 0 17 -6 4 -8 3 -9 -4 -5 -7 4 -12 3 -12 -3
0 -6 -7 -7 -17 -4 -12 5 -14 3 -8 -8 8 -12 6 -12 -8 0 -38 30 -14 69 41 69
l37 0 -28 -14z m-194 -69 c-3 -9 -8 -14 -10 -11 -3 3 -2 9 2 15 9 16 15 13 8
-4z m221 -24 c-3 -3 -9 1 -14 9 -7 11 -10 12 -10 2 0 -7 -5 -10 -10 -7 -8 5
-7 12 1 22 11 13 14 13 26 -3 7 -10 10 -20 7 -23z m-88 9 c0 -12 -4 -16 -9
-11 -5 5 -6 14 -3 20 10 15 12 14 12 -9z m-48 -32 c1 -7 3 -29 6 -48 l4 -35
-12 28 c-7 15 -16 24 -21 20 -4 -5 -6 -3 -3 2 3 6 8 18 11 28 7 20 13 22 15 5z
m132 2 c0 -5 -2 -10 -4 -10 -3 0 -8 5 -11 10 -3 6 -1 10 4 10 6 0 11 -4 11
-10z m-290 -596 c0 -8 -19 -13 -24 -6 -3 5 1 9 9 9 8 0 15 -2 15 -3z m7 -39
c-18 -13 -18 -14 2 -34 12 -12 17 -21 11 -21 -12 0 -50 41 -50 54 0 6 12 12
27 13 25 1 26 0 10 -12z m33 -161 c0 -2 -7 -4 -15 -4 -8 0 -15 4 -15 10 0 5 7
7 15 4 8 -4 15 -8 15 -10z m315 -14 c39 -10 59 -18 46 -19 -34 -1 -21 -10 30
-20 44 -9 43 -9 -22 -10 -61 -1 -69 2 -112 35 -49 39 -59 51 -29 39 9 -4 49
-15 87 -25z m-285 10 c0 -5 -5 -10 -11 -10 -5 0 -7 5 -4 10 3 6 8 10 11 10 2
0 4 -4 4 -10z m459 -96 c9 -8 -125 -2 -144 6 -12 4 14 6 60 3 44 -3 82 -7 84
-9z m-862 -206 c-3 -8 -6 -5 -6 6 -1 11 2 17 5 13 3 -3 4 -12 1 -19z m-114 -3
c-3 -9 -8 -14 -10 -11 -3 3 -2 9 2 15 9 16 15 13 8 -4z m1305 -405 c27 0 33
-3 22 -10 -18 -11 -79 -10 -86 1 -3 5 1 19 8 31 l13 23 3 -22 c3 -19 10 -23
40 -23z m75 3 c-7 -2 -19 -2 -25 0 -7 3 -2 5 12 5 14 0 19 -2 13 -5z"/>
</g>
</svg>
